<svg width="1628" height="370" viewBox="0 0 1628 370" fill="none" xmlns="http://www.w3.org/2000/svg">
<path d="M425.7 257.538H426.948L447.108 226.05C449.604 222.114 452.58 215.49 452.58 215.49C452.58 215.49 453.444 222.498 454.596 226.818L463.044 257.538H464.292L499.428 191.682H485.988L472.164 217.89C469.668 222.594 467.076 230.178 467.076 230.178C467.076 230.178 465.732 221.922 464.388 217.122L457.284 191.106H455.94L438.948 217.89C435.876 222.69 432.804 230.178 432.804 230.178C432.804 230.178 432.228 222.114 431.364 217.026L427.044 191.682H413.412L425.7 257.538ZM542.301 225.09H515.037L520.893 191.682H507.741L496.221 256.962H509.373L512.925 236.706H540.285L536.733 256.962H549.885L561.405 191.682H548.253L542.301 225.09ZM576.123 249.378H601.659L603.579 256.962H616.923L599.259 191.106H598.203L558.459 256.962H571.611L576.123 249.378ZM598.971 238.914H582.363L589.371 227.01C592.443 221.826 594.363 216.354 594.363 216.354C594.363 216.354 594.651 221.922 595.995 227.106L598.971 238.914ZM630.532 256.962H643.78L653.284 203.202H671.428L673.444 191.682H623.716L621.7 203.202H640.036L630.532 256.962ZM679.836 216.642H685.98L693.084 206.466C694.908 203.874 696.252 201.474 696.252 198.498C696.252 194.082 692.892 190.914 688.86 190.914C684.828 190.914 681.468 194.082 681.468 198.306C681.468 201.57 683.004 203.682 685.5 205.122L679.836 216.642ZM717.589 257.826C730.453 257.826 740.341 251.394 740.341 238.434C740.341 229.026 734.965 224.322 726.229 218.754L723.061 216.738C718.165 213.666 716.341 211.65 716.341 208.386C716.341 205.122 718.453 202.242 723.061 202.242C727.189 202.242 729.589 204.066 732.085 207.138L741.493 199.074C737.557 194.082 731.797 190.914 723.733 190.914C710.101 190.914 703.381 199.17 703.381 208.962C703.381 217.506 707.413 222.786 715.669 228.162L718.741 230.178C724.597 234.018 726.901 235.746 726.901 239.394C726.901 243.618 723.061 246.306 717.589 246.306C710.965 246.306 706.549 241.794 703.957 237.57L693.589 244.578C696.757 250.722 705.301 257.826 717.589 257.826ZM789.917 236.13L786.269 256.962H799.421L803.165 235.554L833.885 191.682H819.581L804.989 212.706C801.629 217.506 798.077 225.666 798.077 225.666C798.077 225.666 796.733 217.698 795.005 212.706L787.517 191.682H773.597L789.917 236.13ZM863.326 257.826C882.046 257.826 898.078 244.482 898.078 223.266C898.078 204.354 884.254 190.914 866.302 190.914C847.582 190.914 831.646 204.258 831.646 225.474C831.646 244.386 845.374 257.826 863.326 257.826ZM863.806 246.114C852.862 246.114 845.182 238.146 845.182 225.762C845.182 211.746 853.342 202.626 865.918 202.626C876.862 202.626 884.542 210.594 884.542 222.978C884.542 236.994 876.382 246.114 863.806 246.114ZM931.032 257.826C945.72 257.826 955.608 250.434 958.296 235.458L966.072 191.682H952.824L945.432 233.346C943.896 241.89 939.864 246.114 931.704 246.114C922.872 246.114 918.84 241.218 920.472 232.002L927.576 191.682H914.328L907.416 231.042C904.536 247.266 915.384 257.826 931.032 257.826ZM1005.14 237.378C1015.51 233.634 1020.02 224.514 1020.02 214.914C1020.02 200.226 1010.13 191.682 993.331 191.682H978.835L967.315 256.962H980.467L983.347 240.738H990.067C991.123 240.738 992.083 240.738 993.043 240.642L1001.68 256.962H1015.51L1005.14 237.378ZM985.267 229.41L989.875 203.106H991.987C1001.2 203.106 1006.48 206.37 1006.48 214.914C1006.48 224.898 1000.53 229.41 990.259 229.41H985.267ZM1045.15 257.826C1058.02 257.826 1067.9 251.394 1067.9 238.434C1067.9 229.026 1062.53 224.322 1053.79 218.754L1050.62 216.738C1045.73 213.666 1043.9 211.65 1043.9 208.386C1043.9 205.122 1046.02 202.242 1050.62 202.242C1054.75 202.242 1057.15 204.066 1059.65 207.138L1069.06 199.074C1065.12 194.082 1059.36 190.914 1051.3 190.914C1037.66 190.914 1030.94 199.17 1030.94 208.962C1030.94 217.506 1034.98 222.786 1043.23 228.162L1046.3 230.178C1052.16 234.018 1054.46 235.746 1054.46 239.394C1054.46 243.618 1050.62 246.306 1045.15 246.306C1038.53 246.306 1034.11 241.794 1031.52 237.57L1021.15 244.578C1024.32 250.722 1032.86 257.826 1045.15 257.826ZM1086.57 234.786H1098.38L1099.43 228.834C1108.84 227.586 1116.52 220.77 1116.52 210.21C1116.52 199.65 1109.61 190.914 1096.27 190.914C1087.15 190.914 1079.75 196.098 1076.39 202.626L1086.19 208.386C1088.59 204.642 1091.56 202.146 1096.07 202.146C1100.97 202.146 1103.75 205.506 1103.75 210.114C1103.75 215.298 1100.49 219.522 1092.62 219.522H1089.26L1086.57 234.786ZM1090.12 257.538C1094.35 257.538 1097.99 254.274 1097.99 249.57C1097.99 244.962 1094.35 241.602 1090.12 241.602C1085.9 241.602 1082.35 244.962 1082.35 249.57C1082.35 254.274 1085.9 257.538 1090.12 257.538Z" fill="#F7941D"/>
<path d="M560.813 170.396H551.014C547.496 170.396 544.481 167.634 544.481 163.868V61.1784C544.481 54.1484 538.619 48.2899 531.416 48.2899H515.084C508.049 48.2899 502.186 54.1484 502.186 61.1784V163.952C502.186 167.718 499.171 170.48 495.402 170.48H485.603C482.085 170.48 479.07 167.718 479.07 163.952V61.1784C479.07 54.1484 473.207 48.2899 466.004 48.2899H449.672C442.637 48.2899 436.858 54.1484 436.858 61.1784V163.952C436.858 167.718 433.843 170.48 430.074 170.48H420.275C416.757 170.48 413.742 167.718 413.742 163.952V61.1784C413.742 41.3436 429.907 25.1911 449.756 25.1911H466.088C475.636 25.1911 484.263 28.9572 490.628 34.7319C497.161 28.8735 505.787 25.1911 515.168 25.1911H531.5C551.6 25.1911 567.681 41.3436 567.681 61.1784V163.952C567.681 167.718 564.666 170.48 560.897 170.48L560.813 170.396Z" fill="#CBDB2A"/>
<path d="M645.655 170.396H612.908C593.058 170.396 576.894 154.327 576.894 134.409V60.9274C576.894 41.0925 592.974 24.9401 612.908 24.9401H645.655C665.756 24.9401 681.837 41.0088 681.837 60.9274V134.492C681.837 154.327 665.756 170.48 645.655 170.48V170.396ZM658.721 60.9274C658.721 53.8973 652.858 48.0389 645.655 48.0389H612.908C605.873 48.0389 600.094 53.8973 600.094 60.9274V134.492C600.094 141.69 605.956 147.548 612.908 147.548H645.655C652.858 147.548 658.721 141.69 658.721 134.492V60.9274Z" fill="#CBDB2A"/>
<path d="M762.24 170.396H691.217V61.3458C691.217 41.511 707.13 24.689 726.98 24.689H762.24C782.09 24.689 798.254 40.8414 798.254 60.6763V71.891C798.254 81.6829 794.737 89.8846 788.455 96.1615C794.569 102.438 798.254 111.142 798.254 120.683V134.492C798.254 154.327 782.09 170.48 762.24 170.48V170.396ZM775.055 60.6763C775.055 53.6462 769.192 47.8715 762.24 47.8715H726.98C719.945 47.8715 714.166 53.7299 714.166 60.9274V84.7794H763.245C770.029 84.7794 775.138 78.67 775.138 71.891V60.6763H775.055ZM775.055 120.683C775.055 113.653 770.113 107.878 763.329 107.878H713.998V170.48L726.813 147.548H762.156C769.443 147.548 774.971 141.69 774.971 134.492V120.683H775.055Z" fill="#CBDB2A"/>
<path d="M940.635 170.647H889.964C869.864 170.647 854.202 153.825 854.202 134.241V31.468C854.202 27.953 857.217 24.9401 860.734 24.9401H870.534C874.554 24.9401 877.066 28.204 877.066 31.468V134.409C877.066 141.606 882.678 147.464 889.964 147.464H940.635C944.153 147.464 947.168 150.226 947.168 153.992V163.784C947.168 167.299 944.404 170.563 940.635 170.563V170.647Z" fill="#CBDB2A"/>
<path d="M1020.54 170.396H987.788C967.939 170.396 951.774 154.327 951.774 134.409V60.9274C951.774 41.0925 967.855 24.9401 987.788 24.9401H1020.54C1040.64 24.9401 1056.72 41.0088 1056.72 60.9274V134.492C1056.72 154.327 1040.64 170.48 1020.54 170.48V170.396ZM1033.6 60.9274C1033.6 53.8973 1027.74 48.0389 1020.54 48.0389H987.788C980.753 48.0389 974.89 53.8973 974.89 60.9274V134.492C974.89 141.69 980.753 147.548 987.788 147.548H1020.54C1027.74 147.548 1033.6 141.69 1033.6 134.492V60.9274Z" fill="#CBDB2A"/>
<path d="M1164.42 170.647H1072.8C1069.28 170.647 1066.27 167.634 1066.27 163.868V150.31C1066.27 114.155 1092.9 92.6465 1119.28 73.9833C1127.24 68.1249 1135.19 62.7686 1141.48 57.1613C1144.24 54.8179 1146.42 52.2235 1147.34 47.7878H1072.55C1069.03 47.7878 1066.01 44.9423 1066.01 41.2599V31.468C1066.01 27.7019 1069.03 24.9401 1072.55 24.9401H1164.34C1167.86 24.9401 1170.87 27.7856 1170.87 31.468V41.762C1170.87 84.9468 1107.05 98.0027 1094.49 126.96C1092.65 131.145 1089.8 138.844 1089.38 147.548H1164.42C1167.94 147.548 1170.96 150.561 1170.96 154.076V163.868C1170.96 167.634 1167.94 170.647 1164.42 170.647Z" fill="#CBDB2A"/>
<path d="M1249.02 170.396H1216.27C1196.42 170.396 1180.25 154.327 1180.25 134.409V60.9274C1180.25 41.0925 1196.42 24.9401 1216.27 24.9401H1249.02C1269.12 24.9401 1285.2 41.0088 1285.2 60.9274V134.492C1285.2 154.327 1269.12 170.48 1249.02 170.48V170.396ZM1262.08 60.9274C1262.08 53.8973 1256.22 48.0389 1249.02 48.0389H1216.27C1209.23 48.0389 1203.45 53.8973 1203.45 60.9274V134.492C1203.45 141.69 1209.32 147.548 1216.27 147.548H1249.02C1256.22 147.548 1262.08 141.69 1262.08 134.492V60.9274Z" fill="#CBDB2A"/>
<path d="M1363.34 123.947H1330.59C1326.15 123.947 1323.05 123.947 1317.78 123.947V163.952C1317.78 167.718 1314.76 170.731 1310.99 170.731H1301.19C1297.68 170.731 1294.66 167.718 1294.66 163.952V60.9274C1294.66 31.719 1322.89 25.1911 1330.68 25.1911H1363.42C1383.27 25.1911 1399.6 41.3436 1399.6 61.1784V87.7923C1399.6 107.878 1383.27 123.947 1363.42 123.947H1363.34ZM1376.4 61.1784C1376.4 53.8973 1370.54 48.1226 1363.34 48.1226H1330.59C1323.3 48.1226 1317.53 53.981 1317.53 61.1784L1317.78 123.947L1330.59 100.932H1363.34C1370.54 100.932 1376.4 95.0735 1376.4 87.876V61.2621V61.1784Z" fill="#CBDB2A"/>
<path d="M1432.02 107.878V163.952C1432.02 167.718 1429 170.731 1425.23 170.731H1415.43C1411.92 170.731 1408.9 167.718 1408.9 163.952V31.468C1408.9 27.953 1411.92 24.9401 1415.43 24.9401H1425.23C1429 24.9401 1432.02 27.953 1432.02 31.468V107.795V107.878Z" fill="#CBDB2A"/>
<path d="M837.702 107.878V163.952C837.702 167.718 834.687 170.731 830.918 170.731H821.119C817.602 170.731 814.586 167.718 814.586 163.952V31.468C814.586 27.953 817.602 24.9401 821.119 24.9401H830.918C834.687 24.9401 837.702 27.953 837.702 31.468V107.795V107.878Z" fill="#CBDB2A"/>
<path d="M1513.84 107.878V163.952C1513.84 167.718 1510.83 170.731 1507.06 170.731H1497.26C1493.74 170.731 1490.73 167.718 1490.73 163.952V31.468C1490.73 27.953 1493.74 24.9401 1497.26 24.9401H1507.06C1510.83 24.9401 1513.84 27.953 1513.84 31.468V107.795V107.878Z" fill="#CBDB2A"/>
<path d="M1591.82 107.627H1586.88V163.868C1586.88 167.383 1583.86 170.396 1580.34 170.396H1570.55C1566.78 170.396 1563.76 167.383 1563.76 163.868V107.627H1559.07C1539.22 107.627 1523.06 91.5585 1523.06 71.6399V31.2169C1523.06 27.7019 1526.07 24.689 1529.59 24.689H1539.39C1543.16 24.689 1546.17 27.7855 1546.17 31.2169V71.6399C1546.17 78.67 1552.04 84.4447 1559.07 84.4447H1591.99C1599.02 84.4447 1604.8 78.5863 1604.8 71.6399V31.2169C1604.8 27.7019 1607.82 24.689 1611.33 24.689H1621.38C1624.9 24.689 1627.92 27.7855 1627.92 31.2169V71.6399C1627.92 91.4748 1611.84 107.627 1591.73 107.627H1591.82Z" fill="#CBDB2A"/>
<path d="M1457.31 107.376H1423.73C1421.46 107.376 1419.62 104.363 1419.62 100.597V90.8052C1419.62 87.2902 1421.46 84.2773 1423.73 84.2773H1503.12C1505.22 84.2773 1507.06 87.2902 1507.06 90.8052V100.597C1507.06 104.363 1505.22 107.376 1503.12 107.376H1457.31Z" fill="#CBDB2A"/>
<mask id="mask0_603_22" style="mask-type:luminance" maskUnits="userSpaceOnUse" x="9" y="24" width="315" height="339">
<path d="M277.727 24.1868H54.2722C29.9 24.1868 9.38037 44.6912 9.38037 69.1292V235.257C9.38037 259.611 29.9 280.199 54.2722 280.199H244.309L323.288 362.3V69.1292C323.288 44.7749 303.355 24.1868 277.727 24.1868Z" fill="white"/>
</mask>
<g mask="url(#mask0_603_22)">
<path d="M156.535 8.87128H143.721V361.129H156.535V8.87128Z" fill="#231F20"/>
<path d="M26.1311 4.43567H0V365.564H26.1311V4.43567Z" fill="#231F20"/>
<path d="M57.036 2.25964H37.6052V365.564H57.036V2.25964Z" fill="#231F20"/>
<path d="M121.526 2.25964H75.127V365.481H121.526V2.25964Z" fill="#231F20"/>
<path d="M194.057 4.43567H161.393V365.564H194.057V4.43567Z" fill="#231F20"/>
<path d="M243.136 2.25964H212.231V365.564H243.136V2.25964Z" fill="#231F20"/>
<path d="M272.785 0H258.631V365.564H272.785V0Z" fill="#231F20"/>
<path d="M292.97 2.17596H283.673V369.916H292.97V2.17596Z" fill="#231F20"/>
<path d="M338.28 4.43567H299.335V365.564H338.28V4.43567Z" fill="#231F20"/>
</g>
</svg>
